<svg width="13" height="13" viewBox="0 0 13 13" fill="none" xmlns="http://www.w3.org/2000/svg">
<path opacity="0.5" fill-rule="evenodd" clip-rule="evenodd" d="M8.50903 4.33501C7.97555 3.77276 7.23474 3.42349 6.4149 3.42349C5.59506 3.42349 4.85417 3.77276 4.32119 4.33501H0.679077V2.78481C0.679077 1.98931 1.0584 1.28631 1.63881 0.85887V3.40031H2.10459V0.594554C2.21013 0.550638 2.31985 0.514499 2.43264 0.48731V3.40031H2.89834V0.425898C2.90622 0.425814 2.91399 0.42559 2.92175 0.425366C2.93148 0.425085 2.94119 0.424805 2.95102 0.424805H3.22005V3.40031H3.68583V0.424805H9.89402C11.1486 0.424805 12.166 1.48148 12.166 2.78481H12.1656V4.33501H8.50903ZM9.53496 1.41152C9.33346 1.41152 9.1703 1.58108 9.1703 1.79009V3.09432C9.1703 3.30333 9.33346 3.47289 9.53496 3.47289H10.7629C10.9643 3.47289 11.1275 3.30333 11.1275 3.09432V1.79009C11.1275 1.58108 10.9643 1.41152 10.7629 1.41152H9.53496ZM7.34888 4.33501C7.55246 4.43133 7.73986 4.55783 7.90602 4.70885C8.37955 5.14062 8.67935 5.77306 8.67935 6.47715C8.67935 7.77453 7.66359 8.82963 6.4149 8.82963C5.16646 8.82963 4.15069 7.77453 4.15069 6.47715C4.15069 5.77306 4.45049 5.14062 4.92403 4.70885C5.08992 4.55783 5.2775 4.43133 5.48092 4.33501C5.76596 4.20054 6.08218 4.12478 6.4149 4.12478C6.74787 4.12478 7.06408 4.20054 7.34888 4.33501ZM4.74886 6.47715C4.74886 7.43737 5.49801 8.2157 6.42232 8.2157C7.34662 8.2157 8.09585 7.43737 8.09585 6.47715C8.09585 5.51714 7.34662 4.73889 6.42232 4.73889C5.49801 4.73889 4.74886 5.51714 4.74886 6.47715ZM9.89402 12.4205H2.95102C1.6965 12.4205 0.679077 11.3641 0.679077 10.0605V4.70885H4.01965C3.6775 5.20795 3.47583 5.81783 3.47583 6.47715C3.47583 8.16353 4.7918 9.53092 6.4149 9.53092C8.03817 9.53092 9.3543 8.16353 9.3543 6.47715C9.3543 5.81783 9.1523 5.20795 8.8104 4.70885H12.166V10.0605C12.166 11.3641 11.1488 12.4205 9.89402 12.4205Z" fill="black"/>
</svg>
