<svg width="13" height="10" viewBox="0 0 13 10" fill="none" xmlns="http://www.w3.org/2000/svg">
<path opacity="0.5" fill-rule="evenodd" clip-rule="evenodd" d="M0.278138 8.97588C1.36717 9.62061 2.66054 9.99688 4.04997 9.99688C8.61871 9.99688 11.1995 6.43349 11.0442 3.23743C11.5248 2.91719 11.9421 2.51698 12.2719 2.06117C11.8305 2.24194 11.3562 2.3642 10.8586 2.41895C11.3665 2.13808 11.7568 1.69267 11.9404 1.16186C11.465 1.42231 10.9383 1.61152 10.3779 1.71327C9.92927 1.27162 9.28983 0.995726 8.58187 0.995726C6.99378 0.995726 5.82621 2.36448 6.18477 3.78608C4.13975 3.69115 2.32666 2.78649 1.11332 1.41177C0.468714 2.43306 0.778923 3.76934 1.8748 4.44535C1.4713 4.43368 1.09172 4.33125 0.75992 4.16125C0.733484 5.21397 1.55017 6.1984 2.73366 6.41822C2.38736 6.50501 2.00811 6.52504 1.62269 6.45704C1.93558 7.35969 2.84446 8.01649 3.92108 8.03484C2.88673 8.78376 1.58369 9.11817 0.278138 8.97588Z" fill="black"/>
</svg>
